Coordinates
version=1
nRows=37
nColumns=38
inDegrees=no

Units are S.I. units (second, meters, Newtons, ...)
If the header above contains a line with 'inDegrees', this indicates whether rotational values are in degrees (yes) or radians (no).

endheader
time	pelvis_tilt	pelvis_list	pelvis_rotation	pelvis_tx	pelvis_ty	pelvis_tz	hip_flexion_r	hip_adduction_r	hip_rotation_r	knee_angle_r	ankle_angle_r	subtalar_angle_r	mtp_angle_r	hip_flexion_l	hip_adduction_l	hip_rotation_l	knee_angle_l	ankle_angle_l	subtalar_angle_l	mtp_angle_l	lumbar_extension	lumbar_bending	lumbar_rotation	arm_flex_r	arm_add_r	arm_rot_r	elbow_flex_r	pro_sup_r	wrist_flex_r	wrist_dev_r	arm_flex_l	arm_add_l	arm_rot_l	elbow_flex_l	pro_sup_l	wrist_flex_l	wrist_dev_l
0	2.97092	1.25836	-1.37661	0.55528	-0.386491	0.964721	-0.483794	0.126594	-0.164883	0.0117101	-0.272762	0	0	0.152679	-0.245969	-0.413082	0.962319	-0.104546	0	0	-0.480812	0.0290872	-0.0941655	0.159784	-0.477451	1.18373	0.661491	0.397333	0	0	-0.356405	-0.383441	-0.0166084	0.989592	1.50009	0	0
0.01	2.97032	1.315	-1.39084	0.556705	-0.376206	0.958151	-0.376499	0.110974	-0.141674	0.0750235	-0.26765	0	0	0.21688	-0.226472	-0.430743	0.913697	-0.10469	0	0	-0.396097	0.0170806	-0.0412384	0.121225	-0.483214	1.17895	0.649721	0.354296	0	0	-0.302198	-0.407185	0.0860789	0.930602	1.45868	0	0
0.02	2.97367	1.30776	-1.39406	0.556641	-0.3656	0.957245	-0.398444	0.111997	-0.152358	0.0739608	-0.262311	0	0	0.203395	-0.222155	-0.462518	0.850361	-0.109128	0	0	-0.403187	0.0166491	-0.0428814	0.121677	-0.485431	1.1801	0.652743	0.35119	0	0	-0.304229	-0.409857	0.0867657	0.930124	1.4462	0	0
0.03	2.97639	1.30211	-1.39618	0.556388	-0.355222	0.956027	-0.4168	0.112645	-0.162825	0.0759712	-0.255079	0	0	0.191105	-0.214662	-0.489555	0.784625	-0.115183	0	0	-0.4101	0.0163148	-0.045607	0.123007	-0.48882	1.1807	0.65771	0.349502	0	0	-0.306611	-0.411588	0.0844961	0.929913	1.43611	0	0
0.04	2.97577	1.30103	-1.39387	0.555902	-0.344961	0.954337	-0.428069	0.113317	-0.172939	0.0816405	-0.245672	0	0	0.18424	-0.203728	-0.507889	0.717213	-0.121312	0	0	-0.41265	0.0167609	-0.0491955	0.124128	-0.491992	1.18064	0.66176	0.348652	0	0	-0.308046	-0.411667	0.0809384	0.927283	1.42796	0	0
0.05	2.97167	1.30443	-1.38681	0.5552	-0.334753	0.952214	-0.432525	0.114129	-0.182535	0.0907949	-0.232835	0	0	0.182614	-0.189426	-0.515542	0.648255	-0.127338	0	0	-0.410527	0.0179029	-0.0537948	0.124907	-0.494291	1.1802	0.66395	0.348445	0	0	-0.308552	-0.410828	0.0771595	0.922065	1.422	0	0
0.06	2.96312	1.31188	-1.3746	0.554352	-0.324523	0.949681	-0.430851	0.115132	-0.191159	0.103094	-0.218803	0	0	0.185532	-0.173345	-0.514252	0.580313	-0.129895	0	0	-0.403871	0.0196313	-0.0590261	0.125262	-0.49555	1.17966	0.664136	0.348911	0	0	-0.308566	-0.408988	0.0727294	0.914315	1.418	0	0
0.07	2.95174	1.32197	-1.35952	0.553402	-0.314258	0.9469	-0.424879	0.115557	-0.19966	0.118559	-0.20205	0	0	0.190496	-0.155712	-0.505571	0.513853	-0.128715	0	0	-0.394142	0.0213637	-0.0646444	0.125565	-0.49569	1.17925	0.662103	0.349806	0	0	-0.308372	-0.40615	0.0673163	0.904489	1.41579	0	0
0.08	2.94029	1.33224	-1.34498	0.552393	-0.30389	0.944127	-0.417932	0.114855	-0.207973	0.135951	-0.185996	0	0	0.193845	-0.137194	-0.493816	0.449392	-0.124197	0	0	-0.384139	0.0225389	-0.0697653	0.125887	-0.495485	1.17904	0.65912	0.350295	0	0	-0.308312	-0.403015	0.0615725	0.894106	1.41537	0	0
0.09	2.93271	1.34222	-1.33388	0.551284	-0.293199	0.941473	-0.411726	0.112605	-0.219354	0.154206	-0.171019	0	0	0.19464	-0.11716	-0.47926	0.386265	-0.120455	0	0	-0.37396	0.022768	-0.0753452	0.125838	-0.494594	1.17971	0.655146	0.351308	0	0	-0.308928	-0.400013	0.055932	0.88321	1.41705	0	0
0.1	2.92993	1.35136	-1.32849	0.550255	-0.282328	0.939013	-0.405976	0.108983	-0.234681	0.174674	-0.156799	0	0	0.192349	-0.0964771	-0.462613	0.323866	-0.12029	0	0	-0.36479	0.0214325	-0.0801673	0.125638	-0.492948	1.18073	0.650266	0.352205	0	0	-0.309676	-0.397193	0.0499924	0.87199	1.42029	0	0
0.11	2.92773	1.35771	-1.32522	0.549591	-0.271268	0.936947	-0.404545	0.105338	-0.243442	0.192904	-0.145596	0	0	0.186021	-0.0791129	-0.445768	0.265949	-0.124768	0	0	-0.358515	0.0194661	-0.083227	0.125314	-0.49018	1.18159	0.644397	0.352682	0	0	-0.310542	-0.395424	0.0443004	0.861036	1.4232	0	0
0.12	2.9258	1.36023	-1.32375	0.549228	-0.260021	0.935399	-0.404695	0.101742	-0.248852	0.216673	-0.136381	0	0	0.175611	-0.0666062	-0.430439	0.217315	-0.132595	0	0	-0.356352	0.0174374	-0.0844336	0.125049	-0.487145	1.18204	0.638878	0.352528	0	0	-0.311663	-0.394618	0.0391132	0.850987	1.42594	0	0
0.13	2.90959	1.34258	-1.30587	0.550105	-0.248229	0.935906	-0.409313	0.07174	-0.421632	0.30692	-0.13613	0	0	0.14641	-0.0708006	-0.42004	0.187135	-0.140701	0	0	-0.374002	0.0220463	-0.0853876	0.126019	-0.483292	1.18276	0.6368	0.351401	0	0	-0.315695	-0.398597	0.0334978	0.848074	1.42695	0	0
0.14	2.90899	1.27262	-1.28582	0.547772	-0.2337	0.942012	-0.434	0.020698	-0.698132	0.418819	-0.223293	0	0	0.0591151	-0.0899105	-0.43091	0.174851	-0.14583	0	0	-0.438696	0.0468325	-0.0975425	0.125017	-0.488662	1.18249	0.643832	0.350251	0	0	-0.320991	-0.39955	0.0308308	0.846316	1.42652	0	0
0.15	2.90569	1.30351	-1.29129	0.548373	-0.224379	0.937215	-0.504396	0.0742892	-0.504011	0.318893	-0.12311	0	0	0.0981547	-0.0800707	-0.414691	0.1965	-0.151002	0	0	-0.415534	0.0338616	-0.0942978	0.125895	-0.490957	1.17745	0.65199	0.345928	0	0	-0.323455	-0.402167	0.0252368	0.844999	1.42566	0	0
0.16	2.90207	1.3049	-1.29071	0.548295	-0.212335	0.935878	-0.510383	0.0724927	-0.490087	0.324645	-0.126775	0	0	0.102106	-0.0842178	-0.420764	0.231802	-0.15081	0	0	-0.413496	0.0310359	-0.0920813	0.122733	-0.490591	1.17497	0.652279	0.344403	0	0	-0.32748	-0.404015	0.0232629	0.839725	1.42617	0	0
0.17	2.90015	1.30506	-1.29279	0.548318	-0.199877	0.934762	-0.517645	0.0691832	-0.478901	0.332702	-0.137594	0	0	0.10496	-0.090964	-0.433179	0.277001	-0.144106	0	0	-0.412167	0.0275683	-0.0888783	0.118524	-0.490413	1.17184	0.653025	0.342747	0	0	-0.332606	-0.40628	0.0212971	0.835276	1.42559	0	0
0.18	2.89997	1.30484	-1.29686	0.548312	-0.18699	0.933827	-0.523599	0.064105	-0.470797	0.342724	-0.151369	0	0	0.10409	-0.0966472	-0.441602	0.315633	-0.135675	0	0	-0.410574	0.0235316	-0.0853086	0.113124	-0.490146	1.16848	0.653498	0.341361	0	0	-0.338638	-0.408766	0.019669	0.83132	1.42495	0	0
0.19	2.89963	1.30637	-1.30058	0.548195	-0.17374	0.93299	-0.523599	0.0571437	-0.464347	0.356382	-0.169197	0	0	0.10123	-0.0983095	-0.442226	0.338253	-0.132978	0	0	-0.406349	0.0192844	-0.081559	0.106306	-0.489148	1.16445	0.652189	0.340149	0	0	-0.344186	-0.410599	0.018566	0.825759	1.42545	0	0
0.2	2.90281	1.30856	-1.30685	0.547893	-0.1604	0.932438	-0.523599	0.0492899	-0.455322	0.372042	-0.189341	0	0	0.0959703	-0.0944821	-0.436133	0.342506	-0.146824	0	0	-0.40155	0.0143441	-0.078828	0.0992641	-0.487176	1.1602	0.649173	0.338813	0	0	-0.348959	-0.412061	0.017016	0.819044	1.42557	0	0
0.21	2.92876	1.31405	-1.33541	0.547112	-0.147055	0.931533	-0.496158	0.0151635	-0.467682	0.489206	-0.178163	0	0	0.0914322	-0.0812748	-0.431582	0.337771	-0.173763	0	0	-0.39483	0.00345657	-0.0788021	0.0914561	-0.487681	1.15443	0.650975	0.337074	0	0	-0.355771	-0.413723	0.0137341	0.815608	1.42432	0	0
0.22	2.92301	1.31408	-1.32994	0.546658	-0.133748	0.932286	-0.523599	0.0280527	-0.436599	0.419875	-0.215734	0	0	0.0835701	-0.0814814	-0.427582	0.336914	-0.194708	0	0	-0.391674	0.00242808	-0.0773683	0.0854459	-0.482156	1.15128	0.641565	0.335894	0	0	-0.355899	-0.414689	0.0139948	0.803912	1.42374	0	0
0.23	2.93166	1.31404	-1.33886	0.545823	-0.120573	0.933045	-0.523599	0.0210951	-0.419289	0.433722	-0.271246	0	0	0.0750705	-0.0791464	-0.430775	0.342078	-0.21676	0	0	-0.389869	-0.00154032	-0.0774251	0.0800276	-0.479525	1.1478	0.636789	0.334472	0	0	-0.357373	-0.416041	0.0142173	0.795817	1.42427	0	0
0.24	2.94488	1.31254	-1.35129	0.544861	-0.107501	0.934081	-0.522842	0.0105692	-0.407986	0.460733	-0.324162	0	0	0.0673623	-0.0785276	-0.439113	0.358833	-0.228499	0	0	-0.390062	-0.00557271	-0.0786653	0.0746085	-0.479332	1.14351	0.636593	0.332299	0	0	-0.360396	-0.418263	0.0137682	0.791947	1.42601	0	0
0.25	2.95901	1.3105	-1.36391	0.54376	-0.0946221	0.935381	-0.513556	-0.00116558	-0.396178	0.496006	-0.378134	0	0	0.0609644	-0.0791351	-0.447846	0.382798	-0.233577	0	0	-0.391274	-0.00909393	-0.0802989	0.0694283	-0.480488	1.13904	0.638428	0.329413	0	0	-0.363411	-0.421355	0.0143305	0.790643	1.42953	0	0
0.26	2.97053	1.30602	-1.37284	0.542458	-0.0822037	0.937258	-0.502497	-0.0120483	-0.38545	0.533513	-0.445304	0	0	0.051927	-0.0803352	-0.452289	0.405314	-0.234904	0	0	-0.395868	-0.0102024	-0.0824746	0.0658216	-0.482833	1.13519	0.641134	0.326009	0	0	-0.362851	-0.424733	0.017887	0.788677	1.43204	0	0
0.27	2.98882	1.30354	-1.38761	0.54094	-0.0702057	0.938975	-0.482064	-0.0260601	-0.37283	0.583049	-0.514458	0	0	0.0431229	-0.0771229	-0.45103	0.421521	-0.234421	0	0	-0.399421	-0.0124191	-0.0863608	0.063048	-0.486423	1.13176	0.645596	0.322735	0	0	-0.360983	-0.429286	0.0241564	0.788221	1.43296	0	0
0.28	3.0166	1.30503	-1.41155	0.539445	-0.058563	0.940153	-0.450086	-0.0450859	-0.360026	0.649092	-0.571599	0	0	0.0366182	-0.069174	-0.446933	0.432301	-0.233776	0	0	-0.399538	-0.017635	-0.0914251	0.0601732	-0.490465	1.12785	0.651512	0.320333	0	0	-0.359595	-0.435371	0.0306047	0.791279	1.43389	0	0
0.29	3.04013	1.30706	-1.43179	0.53804	-0.0474435	0.941444	-0.415592	-0.0608475	-0.341208	0.713847	-0.615013	0	0	0.0290651	-0.0613356	-0.441513	0.436798	-0.234501	0	0	-0.399323	-0.0215974	-0.0955033	0.0583353	-0.493951	1.12364	0.655768	0.319123	0	0	-0.355704	-0.441405	0.0376878	0.794456	1.43464	0	0
0.3	3.06299	1.30911	-1.45206	0.536753	-0.0366542	0.942644	-0.378913	-0.074675	-0.317387	0.781617	-0.635005	0	0	0.0194024	-0.0527916	-0.436962	0.435608	-0.235718	0	0	-0.399294	-0.0255396	-0.0999123	0.0578679	-0.497951	1.11995	0.660656	0.319299	0	0	-0.352063	-0.447457	0.0428153	0.800773	1.43037	0	0
0.31	3.08111	1.31101	-1.46824	0.53557	-0.0260346	0.943738	-0.340238	-0.0868099	-0.296392	0.85176	-0.642488	0	0	0.00807616	-0.0452645	-0.434119	0.431548	-0.23579	0	0	-0.399149	-0.0282042	-0.10408	0.057763	-0.503198	1.11554	0.667092	0.320518	0	0	-0.348321	-0.453734	0.0480137	0.808619	1.42379	0	0
0.32	3.09162	1.31249	-1.4775	0.534468	-0.0155727	0.944694	-0.299436	-0.0975741	-0.279646	0.923913	-0.647414	0	0	-0.00407301	-0.0401313	-0.433234	0.42798	-0.233264	0	0	-0.399602	-0.0290519	-0.108535	0.0584823	-0.510084	1.11034	0.675978	0.322979	0	0	-0.34656	-0.459599	0.050786	0.819664	1.42104	0	0
0.33	3.09118	1.31654	-1.47725	0.533516	-0.00537977	0.945342	-0.252599	-0.106594	-0.263785	0.999003	-0.642481	0	0	-0.012472	-0.0381395	-0.433342	0.427188	-0.226728	0	0	-0.397026	-0.0276301	-0.111647	0.0593616	-0.517392	1.1035	0.68475	0.32695	0	0	-0.344215	-0.463433	0.0505587	0.830609	1.42145	0	0
0.34	3.07502	1.32375	-1.46288	0.532787	0.00442631	0.945908	-0.20024	-0.11111	-0.246406	1.07228	-0.618945	0	0	-0.0160133	-0.0402829	-0.433021	0.428573	-0.217051	0	0	-0.390983	-0.022986	-0.113322	0.0620031	-0.523107	1.09733	0.689638	0.333525	0	0	-0.33965	-0.463976	0.0466141	0.83846	1.425	0	0
0.35	3.04745	1.33245	-1.43817	0.532273	0.0139381	0.946621	-0.146832	-0.110646	-0.22692	1.13885	-0.579284	0	0	-0.0173236	-0.0450681	-0.432441	0.429837	-0.206631	0	0	-0.383124	-0.0165193	-0.11445	0.0666713	-0.526205	1.09273	0.689459	0.341761	0	0	-0.333654	-0.461984	0.0390048	0.843747	1.43432	0	0
0.36	3.0399	1.33772	-1.43093	0.531639	0.0237901	0.947278	-0.104964	-0.111864	-0.212308	1.191	-0.537342	0	0	-0.0246546	-0.0448164	-0.432838	0.427863	-0.198222	0	0	-0.378232	-0.0144153	-0.120188	0.0712972	-0.530553	1.09008	0.693237	0.347999	0	0	-0.331958	-0.461933	0.0291487	0.854749	1.44443	0	0
